<svg width="14" height="14" viewBox="0 0 14 14" fill="none" xmlns="http://www.w3.org/2000/svg">
<g id="streamline:interface-content-fire-lit-flame-torch-trending" clip-path="url(#clip0_39_102)">
<g id="Group">
<path id="Vector" d="M6.14999 0.53001C6.08953 0.493893 6.02041 0.474823 5.94999 0.474823C5.87956 0.474823 5.81045 0.493893 5.74999 0.53001C5.70011 0.569524 5.66646 0.625953 5.65541 0.688613C5.64435 0.751273 5.65665 0.815812 5.68999 0.87001C6.91999 3.00001 7.17999 5.90001 5.49999 7.50001C4.85361 6.95683 4.34045 6.27262 3.99999 5.50001C3.37872 5.84506 2.86384 6.35371 2.51125 6.97073C2.15867 7.58776 1.98185 8.28958 1.99999 9.00001C2.02535 9.62629 2.17572 10.2412 2.44226 10.8085C2.7088 11.3758 3.08611 11.884 3.552 12.3033C4.01789 12.7226 4.56295 13.0445 5.15509 13.25C5.74724 13.4555 6.3745 13.5405 6.99999 13.5C10.22 13.5 11.89 11.5 12 9.00001C12.13 6.00001 9.99999 2.31001 6.14999 0.53001Z" stroke="black" stroke-linecap="round" stroke-linejoin="round"/>
<path id="Vector_2" d="M9.5 9C9.5 9.53043 9.28929 10.0391 8.91421 10.4142C8.53914 10.7893 8.03043 11 7.5 11" stroke="black" stroke-linecap="round" stroke-linejoin="round"/>
</g>
</g>
<defs>
<clipPath id="clip0_39_102">
<rect width="14" height="14" fill="white"/>
</clipPath>
</defs>
</svg>
