<svg width="24" height="24" viewBox="0 0 24 24" fill="none" xmlns="http://www.w3.org/2000/svg">
<g id="tabler:brand-youtube-kids">
<rect width="24" height="24" fill="#D71E1E"/>
<g id="Group">
<path id="Vector" d="M17.782 17.03L14.369 17.265H14.346C13.229 17.355 12.132 17.6 11.089 17.99L8.89203 18.784C8.42552 18.9525 7.92921 19.0227 7.43427 18.9902C6.93934 18.9577 6.45648 18.8231 6.01603 18.595C5.58419 18.3742 5.20558 18.0621 4.90649 17.6803C4.6074 17.2985 4.395 16.8562 4.28403 16.384L3.08003 11.091C2.98332 10.6639 2.97505 10.2215 3.0557 9.79103C3.13636 9.36058 3.30424 8.95118 3.54903 8.58803C4.05725 7.83832 4.8386 7.31718 5.72603 7.13603L15.569 5.07603C17.439 4.68403 19.285 5.82003 19.693 7.61303L20.92 13.005C21.0257 13.4721 21.0258 13.9569 20.9203 14.424C20.8147 14.8911 20.6063 15.3288 20.31 15.705C20.0049 16.0904 19.6222 16.4074 19.1867 16.6353C18.7512 16.8632 18.2726 16.997 17.782 17.028V17.03Z" stroke="white" stroke-width="2" stroke-linecap="round" stroke-linejoin="round"/>
<path id="Vector_2" d="M10 10L10.972 14L15 11L10 10Z" stroke="white" stroke-width="2" stroke-linecap="round" stroke-linejoin="round"/>
</g>
</g>
</svg>
